<svg width="29" height="27" viewBox="0 0 29 27" fill="none" xmlns="http://www.w3.org/2000/svg">
<path d="M2 25.7466L14.321 3L26.6422 25.7466H26.6299H26.5687H26.5075H26.4465H26.3856H26.3248H26.2641H26.2034H26.1429H26.0825H26.0221H25.9619H25.9017H25.8417H25.7817H25.7218H25.662H25.6023H25.5427H25.4832H25.4237H25.3645H25.3052H25.246H25.187H25.128H25.069H25.0103H24.9516H24.893H24.8344H24.776H24.7176H24.6593H24.6011H24.543H24.485H24.427H24.3691H24.3113H24.2536H24.196H24.1385H24.0809H24.0236H23.9663H23.909H23.8519H23.7949H23.7379H23.681H23.6241H23.5674H23.5107H23.4541H23.3975H23.3411H23.2847H23.2284H23.1721H23.116H23.0599H23.0037H22.9479H22.892H22.8362H22.7805H22.7248H22.6692H22.6137H22.5582H22.5028H22.4475H22.3923H22.3371H22.2819H22.2269H22.1719H22.117H22.062H22.0072H21.9526H21.8979H21.8433H21.7887H21.7343H21.6799H21.6255H21.5711H21.517H21.4628H21.4087H21.3546H21.3006H21.2467H21.1928H21.139H21.0851H21.0315H20.9778H20.9243H20.8707H20.8172H20.7638H20.7104H20.6571H20.6038H20.5506H20.4974H20.4443H20.3913H20.3383H20.2852H20.2324H20.1795H20.1266H20.0739H20.0212H19.9685H19.9159H19.8633H19.8108H19.7584H19.7059H19.6536H19.6012H19.5489H19.4967H19.4445H19.3923H19.3402H19.288H19.2361H19.1841H19.1321H19.0802H19.0282H18.9764H18.9247H18.8729H18.8211H18.7695H18.7178H18.6663H18.6147H18.5632H18.5117H18.4601H18.4088H18.3574H18.3061H18.2548H18.2035H18.1522H18.101H18.0498H17.9987H17.9474H17.8963H17.8453H17.7942H17.7432H17.6923H17.6413H17.5904H17.5395H17.4887H17.4378H17.387H17.3362H17.2856H17.2347H17.1841H17.1333H17.0827H17.0321H16.9815H16.9309H16.8803H16.8297H16.7793H16.7287H16.6783H16.6279H16.5773H16.5269H16.4766H16.4262H16.3758H16.3254H16.2751H16.2248H16.1746H16.1242H16.0739H16.0237H15.9734H15.9232H15.873H15.8228H15.7726H15.7225H15.6723H15.6222H15.5721H15.5219H15.4718H15.4218H15.3716H15.3215H15.2715H15.2213H15.1713H15.1213H15.0712H15.0211H14.9711H14.9211H14.8712H14.821H14.771H14.721H14.6711H14.621H14.571H14.521H14.471H14.4211H14.371H14.321H14.271H14.221H14.1711H14.121H14.071H14.021H13.971H13.9211H13.871H13.821H13.7709H13.721H13.6709H13.6209H13.5708H13.5208H13.4707H13.4207H13.3706H13.3205H13.2704H13.2203H13.1702H13.1201H13.07H13.0198H12.9697H12.9195H12.8694H12.8193H12.769H12.7189H12.6686H12.6184H12.5681H12.5178H12.4675H12.4172H12.367H12.3166H12.2662H12.216H12.1655H12.1151H12.0647H12.0142H11.9639H11.9134H11.8628H11.8123H11.7617H11.7111H11.6606H11.61H11.5594H11.5086H11.458H11.4073H11.3565H11.3059H11.255H11.2042H11.1533H11.1025H11.0517H11.0007H10.9497H10.8988H10.8478H10.7968H10.7457H10.6946H10.6434H10.5924H10.5412H10.4899H10.4387H10.3874H10.3361H10.2847H10.2333H10.1819H10.1304H10.0789H10.0274H9.97586H9.92425H9.87261H9.82093H9.76922H9.71746H9.66567H9.61384H9.56196H9.51005H9.45809H9.4061H9.35406H9.30198H9.24986H9.19769H9.14548H9.09323H9.04094H8.98859H8.93621H8.88378H8.8313H8.77877H8.7262H8.67358H8.62092H8.5682H8.51544H8.46263H8.40977H8.35686H8.3039H8.25089H8.19782H8.14471H8.09154H8.03832H7.98505H7.93173H7.87835H7.82492H7.77143H7.71789H7.66429H7.61064H7.55693H7.50316H7.44934H7.39545H7.34152H7.28752H7.23346H7.17935H7.12517H7.07094H7.01664H6.96228H6.90786H6.85338H6.79884H6.74424H6.68957H6.63484H6.58004H6.52518H6.47025H6.41526H6.36021H6.30508H6.2499H6.19464H6.13932H6.08393H6.02847H5.97294H5.91734H5.86167H5.80594H5.75013H5.69425H5.6383H5.58228H5.52619H5.47002H5.41378H5.35747H5.30108H5.24462H5.18808H5.13147H5.07479H5.01803H4.96119H4.90427H4.84728H4.79021H4.73306H4.67583H4.61853H4.56114H4.50367H4.44613H4.3885H4.33079H4.273H4.21513H4.15718H4.09914H4.04102H3.98282H3.92453H3.86615H3.8077H3.74915H3.69052H3.63181H3.57301H3.51412H3.45514H3.39607H3.33692H3.27768H3.21834H3.15892H3.09941H3.03981H2.98011H2.92033H2.86045H2.80048H2.74042H2.68026H2.62002H2.55967H2.49923H2.4387H2.37807H2.31735H2.25653H2.19561H2.1346H2.07349H2.01228H2Z" stroke="#B4DBE8" stroke-width="2"/>
</svg>
